<svg width="1164" height="428" viewBox="0 0 1164 428" fill="none" xmlns="http://www.w3.org/2000/svg">
<path d="M1161.65 334.236C1157.41 334.236 1153.28 333.092 1149.26 331.831C1136.79 327.918 1123.41 325.576 1110.64 322.703C1080.94 316.021 1051.06 310.273 1021.14 304.711C1004.87 301.687 988.043 296.275 971.418 296.275C956.606 296.275 942.134 294.699 927.493 292.585C911.88 290.331 896.474 287.298 880.965 284.446C867.2 281.914 852.817 279.074 838.786 279.074C827.065 279.074 821.144 287.614 814.533 296.275C807.395 305.629 800.234 315.869 790.347 322.505C786.452 325.119 782.934 328.235 778.747 330.414C775.967 331.861 773.16 333.304 770.806 335.422C765.724 339.996 761.003 344.967 755.945 349.526C748.503 356.234 740.019 362.597 733.702 370.417C728.614 376.717 724.681 383.603 718.445 388.903C707.986 397.794 699.021 410.719 686.218 416.352C683.893 417.375 676.817 420.594 674.553 418.33C671.211 414.988 669.153 409.043 667.897 404.556C666.476 399.481 667.548 393.078 669.808 388.475C672.252 383.496 673.775 377.752 676.794 373.087C680.034 368.08 683.247 363.032 686.416 357.962C691.23 350.259 696.835 344.073 702.892 337.334C706.975 332.791 710.993 328.179 715.315 323.856C716.586 322.585 717.632 320.588 719.203 319.704C721.213 318.574 723.385 317.809 725.497 316.903C730.768 314.644 735.822 312.065 740.26 308.435C743.253 305.986 748.115 305.133 750.606 302.075C755.196 296.443 762.178 288.117 758.91 280.129C755.891 272.748 745.556 267.388 738.81 264.015C730.497 259.859 719.83 262.071 710.932 260.094C704.792 258.73 694.11 257.936 689.217 262.829C685.886 266.16 683.419 269.79 680.485 273.407C676.76 277.998 672.929 281.405 667.798 284.446C662.04 287.858 656.146 291.105 650.894 295.287C646.003 299.181 643.593 304.736 641.206 310.379C635.555 323.735 629.432 336.963 625.191 350.844C621.543 362.782 619.318 374.854 616.525 386.959C614.262 396.767 609.678 406.498 600.84 411.937C597.882 413.757 595.965 416.576 592.239 416.682C588.779 416.781 585.145 416.947 581.695 416.682C575.893 416.236 580.471 393.331 581.563 389.991C582.99 385.624 584.228 381.108 585.385 376.645C586.524 372.253 586.268 367.831 587.033 363.432C587.954 358.132 587.372 352.682 588.087 347.318C588.872 341.436 590.418 335.629 591.514 329.821C593.251 320.614 594.463 311.355 597.61 302.437C600.578 294.03 603.139 285.472 606.178 277.031C607.678 272.864 610.602 269.427 612.999 265.762C615.626 261.744 618.725 257.452 622.819 254.723C627.246 251.772 631.024 247.323 634.813 243.618C638.4 240.111 641.41 236.239 644.402 232.25C648.074 227.354 654.129 223.506 656.891 217.981" stroke="#312429" stroke-opacity="0.1" stroke-width="3" stroke-linecap="round"/>
<path d="M1162.24 145.619C1158.17 147.333 1153.21 146.805 1148.93 146.805C1141.78 146.805 1135.13 148.051 1128.04 148.618C1115.62 149.612 1103.4 149.771 1090.9 149.771C1081.19 149.771 1071.69 151.468 1062 152.012C1036.96 153.419 1010.59 148.615 986.114 155.142C974.551 158.226 962.408 158.075 950.493 158.075C934.926 158.075 919.398 159.782 903.833 159.854C871.171 160.006 838.269 157.427 806.295 165.226C786.269 170.11 767.236 171.717 746.718 171.717C737.903 171.717 728.683 170.929 719.961 172.31C709.393 173.984 698.54 174.897 687.866 175.573C672.953 176.516 655.608 174.122 641.469 180.285C633.827 183.616 625.398 184.69 617.711 187.765C612.802 189.728 607.939 191.958 603.179 194.256C597.689 196.907 590.974 196.885 585.122 198.408C573.984 201.307 561.461 204.164 552.532 211.754C549.702 214.159 547.527 217.549 544.92 220.222C542.127 223.086 539.705 226.243 537.407 229.515C533.666 234.843 531.849 238.339 531.014 244.805C530.348 249.968 529.398 255.393 527.587 260.292C526.096 264.329 526.994 269.704 526.994 273.967C526.994 281.23 525.808 288.339 525.808 295.683C525.808 298.712 524.297 308.138 529.696 308.138C531.651 308.138 533.607 308.138 535.562 308.138C537.451 308.138 538.044 307.062 539.45 306.359" stroke="#312429" stroke-opacity="0.1" stroke-width="3" stroke-linecap="round"/>
<path d="M628.663 209.784C626.428 210.033 624.031 215.397 622.819 217.075C620.143 220.78 618.174 225.034 615.008 228.416C610.347 233.395 606.924 239.476 602.51 244.675C597.353 250.749 592.345 257.038 586.713 262.67C582.032 267.352 577.535 271.998 575.141 278.293C573.674 282.15 573.234 286.277 571.9 290.155C570.623 293.87 569.355 297.586 568.139 301.322C565.18 310.421 565.99 320.251 563.684 329.559C561.061 340.15 558.471 350.269 557.811 361.152C557.415 367.686 555.963 374.517 554.426 380.883C553.059 386.545 553.674 392.762 553.674 398.56C553.674 403.343 553.674 408.127 553.674 412.91C553.674 415.674 553.582 420.487 554.715 423.036C555.597 425.019 559.074 424.886 560.733 425.64C564.149 427.192 567.336 424.11 569.817 422.515C573.721 420.005 575.947 415.391 579.712 412.881" stroke="#312429" stroke-opacity="0.1" stroke-width="3" stroke-linecap="round"/>
<path d="M608.678 202.359C605.391 202.359 601.775 205.837 599.243 207.778C597.212 209.335 596.119 211.726 594.644 213.777C593.164 215.836 591.485 217.621 589.834 219.539C585.416 224.67 580.524 229.351 575.747 234.128C570.25 239.624 563.355 243.451 557.563 248.612C553.67 252.08 552.01 257.67 550.136 262.355C547.545 268.834 546.186 276.478 545.431 283.394C544.11 295.507 541.158 307.459 538.745 319.391C534.881 338.493 537.778 358.025 534.833 377.167C534.54 379.073 533.116 381.793 534.701 383.379C536.224 384.901 537.863 387.104 540.198 387.396C542.994 387.745 551.237 389.431 552.541 385.519" stroke="#312429" stroke-opacity="0.1" stroke-width="3" stroke-linecap="round"/>
<path d="M1.79639 1.75195C4.61848 1.75195 7.4036 2.05769 10.1678 2.66648C19.9887 4.8294 30.1618 8.43711 39.4679 12.269C47.5666 15.6038 54.9945 20.2726 63.1401 23.5951C71.938 27.1837 80.7025 30.8566 89.5207 34.3936C99.0496 38.2156 108.439 42.1095 117.73 46.4935C128.789 51.7115 139.152 58.125 149.985 63.764C160.229 69.0966 170.212 75.0572 180.622 80.0496C191.437 85.2364 202.46 89.9289 213.404 94.8228C225.968 100.441 238.436 105.88 250.302 112.902C263.136 120.498 275.597 127.143 289.38 132.952C299.879 137.376 310.869 141.77 319.841 148.885C325.774 153.591 333.812 159.317 341.157 161.302C350.048 163.705 359.081 165.886 368.065 167.915C374.958 169.471 381.289 168.621 388.149 167.774C392.236 167.269 396.196 166.975 399.897 164.96C403.783 162.845 407.034 160.84 411.329 159.473C421.161 156.345 431.769 155.938 441.192 151.312C448.472 147.739 456.349 145.082 463 140.408C471.051 134.751 478.298 129.051 487.622 125.495C495.567 122.464 502.909 122.048 511.364 122.048C519.23 122.048 528.341 122.934 536.021 124.58C545.234 126.554 554.539 128.985 563.598 131.615C568.999 133.183 574.477 134.299 579.884 135.73C584.433 136.935 589.783 137.999 594.059 139.916C599.756 142.47 607.462 142.941 613.651 142.941C618.728 142.941 623.657 143.574 628.741 143.574C640.363 143.574 650.784 142.469 662.015 139.424C668.062 137.784 674.787 139.762 677.492 145.474C680.674 152.191 677.794 156.457 674.678 162.568C670.961 169.86 664.105 175.929 656.599 179.03C645.218 183.73 633.815 187.402 622.128 191.2C610.215 195.072 595.568 197.241 583.014 194.999C578.422 194.179 573.701 191.737 569.683 189.476C565.202 186.956 559.421 186.168 554.382 185.994C547.769 185.766 533.7 182.476 528.424 187.753C521.372 194.804 535.649 197.22 539.961 197.883C545.623 198.754 554.718 204.138 554.523 210.968C554.233 221.115 538.655 228.102 532.504 234.253C522.163 244.595 511.381 255.165 499.159 263.237C493.884 266.72 488.182 269.365 482.381 271.819C477.873 273.726 473.783 276.854 469.05 278.432C464.843 279.834 459.529 279.698 455.121 279.698C451.044 279.698 447.733 277.183 444.358 275.407C441.623 273.968 440.758 272.862 438.659 270.553C435.404 266.972 430.682 265.39 427.263 261.97C420.923 255.631 412.666 253.291 403.837 255.498C401.219 256.153 396.873 257.78 396.873 261.056C396.873 264.687 396.593 266.4 400.32 268.161C405.689 270.699 414.843 270.201 420.65 270.201C426.774 270.201 431.813 270.587 437.534 272.593C442.653 274.388 446.588 276.757 450.689 279.98C454.122 282.677 456.627 286.519 460.467 288.703C465.187 291.386 469.128 296.702 471.934 301.295C474.898 306.146 477.833 310.211 481.502 314.45C491.295 325.767 502.415 333.247 516.394 338.58C521.654 340.586 526.33 343.339 531.625 345.192C533.393 345.811 534.282 347.45 536.162 348.077" stroke="#312429" stroke-opacity="0.1" stroke-width="3" stroke-linecap="round"/>
<path d="M549.458 398.728C538.604 398.728 527.932 402.526 516.957 402.526C507.677 402.526 498.402 404.144 489.099 402.526C479.551 400.866 470.872 397.554 461.452 395.421C459.424 394.962 457.785 393.589 455.754 393.029C452.737 392.199 449.713 391.403 446.679 390.638C436.602 388.096 426.634 383.664 416.922 380.015C400.083 373.689 382.922 366.224 367.889 356.202C353.207 346.414 340.21 335.63 326.595 324.51C315.558 315.497 302.419 309.645 290.049 302.773C276.678 295.344 261.227 291.56 246.925 286.381C236.855 282.735 226.99 279.842 217.414 274.985C207.383 269.897 196.191 267.896 185.687 264.011C181.558 262.483 177.583 261.74 173.235 261.197C165.352 260.211 157.838 257.54 150.091 255.956C135.004 252.87 120.027 250.747 105.525 245.474C94.1296 241.33 82.6873 238.552 71.0895 235.238C64.5002 233.355 57.9004 231.335 51.1809 229.962C42.3866 228.165 33.0062 228.007 24.3782 225.565C19.8994 224.298 14.9875 222.733 10.3789 222.118C8.20948 221.829 2.79032 222.171 1.79639 220.184" stroke="#312429" stroke-opacity="0.1" stroke-width="3" stroke-linecap="round"/>
<path d="M708.456 317.413C710.879 320.139 710.067 325.674 708.745 328.659C707.396 331.708 704.991 333.93 702.875 336.431C700.796 338.888 698.559 341.466 695.577 342.902C691.266 344.978 686.201 346.026 681.624 347.388C679.454 348.033 677.425 349.071 675.174 349.414C671.866 349.916 668.439 350.181 665.106 350.509C661.697 350.845 658.258 351.174 654.832 351.253C649.888 351.368 645.315 350.652 640.445 350.034C637.485 349.658 634.563 349.769 631.618 349.228C630.072 348.944 628.542 348.669 626.966 348.669" stroke="#312429" stroke-opacity="0.1" stroke-width="3" stroke-linecap="round"/>
<path d="M667.525 353.136C667.625 355.834 670.346 357.499 671.535 359.834C672.742 362.202 672.87 364.258 672.734 366.903C672.563 370.255 669.608 373.428 667.236 375.462C663.915 378.308 660.231 381.502 656.362 383.565C652.813 385.458 649.206 387.034 645.282 387.906C640.137 389.05 634.822 389.57 629.736 391.007C625.088 392.321 620.574 392.206 615.803 392.206" stroke="#312429" stroke-opacity="0.1" stroke-width="3" stroke-linecap="round"/>
<path d="M643.668 309.906C650.653 310.316 658.35 310.886 665.161 312.589C673.438 314.658 682.819 313.029 691.289 313.836C704.778 315.12 720.551 315.859 732.947 309.662C734.636 308.817 737.577 308.015 738.53 306.247C739.614 304.234 739.289 301.869 739.289 299.661C739.289 292.902 735.741 288.194 729.911 284.645C726.363 282.486 721.355 281.395 717.335 280.39C711.356 278.895 705.404 277.953 699.284 277.327C692.883 276.673 686.699 276.243 680.258 276.243" stroke="#312429" stroke-opacity="0.1" stroke-width="3" stroke-linecap="round"/>
</svg>
